<svg width="590" height="362" viewBox="0 0 590 362" fill="none" xmlns="http://www.w3.org/2000/svg">
<g clip-path="url(#clip0_818:6282)">
<path d="M291.53 361.239C289.583 361.239 287.65 360.729 285.943 359.746L268.161 349.218C265.505 347.733 266.801 347.207 267.677 346.905C271.218 345.665 271.937 345.385 275.717 343.238C276.114 343.011 276.634 343.091 277.04 343.331L290.702 351.438C291.195 351.705 291.895 351.705 292.352 351.438L345.619 320.691C346.112 320.411 346.432 319.838 346.432 319.251V257.785C346.432 257.172 346.112 256.625 345.608 256.318L292.363 225.598C291.87 225.305 291.216 225.305 290.723 225.598L237.489 256.318C236.973 256.612 236.645 257.185 236.645 257.772V319.238C236.645 319.825 236.965 320.385 237.471 320.665L252.058 329.091C259.978 333.051 264.818 328.385 264.818 323.691V263.025C264.818 262.158 265.498 261.492 266.365 261.492H273.111C273.951 261.492 274.645 262.158 274.645 263.025V323.718C274.645 334.278 268.885 340.345 258.871 340.345C255.791 340.345 253.365 340.345 246.591 337.011L232.618 328.958C229.165 326.958 227.031 323.225 227.031 319.238V257.772C227.031 253.772 229.165 250.038 232.618 248.065L285.938 217.305C289.311 215.398 293.791 215.398 297.138 217.305L350.391 248.078C353.831 250.065 355.978 253.785 355.978 257.785V319.251C355.978 323.238 353.831 326.958 350.391 328.958L297.138 359.718C295.431 360.705 293.498 361.211 291.524 361.211" fill="#689F63"/>
<path d="M307.982 318.884C284.676 318.884 279.789 308.186 279.789 299.212C279.789 298.359 280.477 297.679 281.332 297.679H288.212C288.972 297.679 289.612 298.232 289.732 298.983C290.772 305.994 293.865 309.53 307.958 309.53C319.185 309.53 323.958 306.994 323.958 301.04C323.958 297.614 322.598 295.067 305.158 293.36C290.572 291.92 281.558 288.707 281.558 277.04C281.558 266.294 290.625 259.894 305.812 259.894C322.865 259.894 331.318 265.814 332.385 278.534C332.425 278.974 332.265 279.4 331.972 279.72C331.678 280.027 331.265 280.214 330.838 280.214H323.918C323.198 280.214 322.572 279.707 322.425 279.014C320.758 271.64 316.732 269.28 305.785 269.28C293.532 269.28 292.105 273.547 292.105 276.747C292.105 280.627 293.785 281.76 310.318 283.947C326.692 286.12 334.465 289.187 334.465 300.694C334.465 312.294 324.785 318.947 307.905 318.947L307.982 318.884ZM372.785 253.761H374.572C376.038 253.761 376.318 252.734 376.318 252.134C376.318 250.561 375.238 250.561 374.638 250.561H372.798L372.785 253.761ZM370.612 248.721H374.572C375.932 248.721 378.598 248.721 378.598 251.761C378.598 253.881 377.238 254.321 376.425 254.587C378.012 254.694 378.118 255.734 378.332 257.201C378.438 258.121 378.612 259.707 378.932 260.241H376.492C376.425 259.707 376.052 256.774 376.052 256.614C375.892 255.961 375.665 255.641 374.852 255.641H372.838V260.254H370.612V248.721ZM365.852 254.454C365.852 259.227 369.705 263.094 374.438 263.094C379.212 263.094 383.065 259.147 383.065 254.454C383.065 249.667 379.158 245.867 374.425 245.867C369.758 245.867 365.838 249.614 365.838 254.441L365.852 254.454ZM384.718 254.481C384.718 260.134 380.092 264.747 374.452 264.747C368.852 264.747 364.185 260.187 364.185 254.481C364.185 248.667 368.958 244.214 374.452 244.214C379.985 244.214 384.705 248.681 384.705 254.481" fill="#689F63"/>
<path fill-rule="evenodd" clip-rule="evenodd" d="M126.581 120.733C126.581 118.28 125.288 116.026 123.17 114.806L66.6959 82.3129C65.7425 81.7529 64.6745 81.4596 63.5919 81.4196H63.0079C61.9252 81.4596 60.8572 81.7529 59.8879 82.3129L3.41599 114.806C1.312 116.033 0 118.286 0 120.739L0.124 208.259C0.124 209.473 0.750665 210.606 1.81733 211.206C2.85733 211.846 4.16399 211.846 5.20399 211.206L38.7773 191.979C40.8973 190.718 42.1906 188.489 42.1906 186.059V145.173C42.1906 142.733 43.4839 140.479 45.5973 139.266L59.8906 131.034C60.9519 130.421 62.1172 130.117 63.3039 130.117C64.4719 130.117 65.6639 130.418 66.6959 131.033L80.9825 139.262C83.0972 140.475 84.3958 142.729 84.3958 145.169V186.053C84.3958 188.479 85.7065 190.719 87.8158 191.973L121.368 211.186C122.421 211.813 123.732 211.813 124.781 211.186C125.816 210.586 126.472 209.453 126.472 208.239L126.581 120.733ZM393.071 166.301C393.071 166.91 392.747 167.474 392.218 167.775L372.821 178.957C372.294 179.259 371.643 179.259 371.118 178.957L351.718 167.775C351.185 167.473 350.865 166.909 350.865 166.301V143.906C350.865 143.295 351.185 142.733 351.705 142.426L371.091 131.226C371.625 130.919 372.278 130.919 372.811 131.226L392.211 142.426C392.745 142.733 393.065 143.295 393.065 143.906L393.071 166.301ZM398.311 0.431711C397.253 -0.157622 395.965 -0.141622 394.919 0.467711C393.879 1.08104 393.237 2.20104 393.237 3.41437V90.0809C393.237 90.9342 392.783 91.7209 392.045 92.1475C391.311 92.5742 390.398 92.5742 389.658 92.1475L375.511 83.9996C373.405 82.7809 370.81 82.7809 368.695 83.9996L312.202 116.604C310.091 117.817 308.789 120.07 308.789 122.497V187.723C308.789 190.163 310.091 192.403 312.202 193.63L368.695 226.257C370.805 227.47 373.402 227.47 375.518 226.257L432.011 193.617C434.118 192.39 435.425 190.15 435.425 187.71V25.1503C435.425 22.6757 434.078 20.3997 431.918 19.1903L398.311 0.431711ZM586.435 143.317C588.534 142.098 589.826 139.847 589.826 137.421V121.613C589.826 119.181 588.532 116.937 586.43 115.713L530.296 83.1262C528.176 81.8996 525.576 81.8996 523.456 83.1262L466.976 115.726C464.856 116.953 463.563 119.193 463.563 121.633V186.833C463.563 189.286 464.883 191.553 467.003 192.766L523.123 224.753C525.19 225.939 527.723 225.953 529.816 224.793L563.763 205.926C564.83 205.326 565.51 204.193 565.51 202.966C565.51 201.739 564.856 200.593 563.79 199.993L506.963 167.379C505.896 166.779 505.243 165.646 505.243 164.433V143.979C505.243 142.758 505.883 141.633 506.95 141.025L524.63 130.825C525.683 130.211 526.976 130.211 528.03 130.825L545.723 141.025C546.776 141.625 547.43 142.758 547.43 143.971V160.051C547.43 161.265 548.083 162.398 549.136 163.011C550.19 163.611 551.496 163.611 552.55 162.998L586.435 143.317Z" fill="#333333"/>
<path fill-rule="evenodd" clip-rule="evenodd" d="M526.051 140.267C526.451 140.031 526.952 140.031 527.357 140.267L538.197 146.52C538.603 146.755 538.851 147.187 538.851 147.653V160.173C538.851 160.64 538.603 161.072 538.197 161.307L527.357 167.56C526.952 167.796 526.451 167.796 526.051 167.56L515.217 161.307C514.804 161.072 514.551 160.64 514.551 160.173V147.653C514.551 147.187 514.791 146.755 515.204 146.52L526.051 140.267Z" fill="#689F63"/>
<path d="M337.409 110.369L179.123 32.7822L97.9629 198.347L256.245 275.938L337.409 110.369Z" fill="url(#paint0_linear_818:6282)"/>
<path d="M87.6855 133.317L199.452 284.587L347.265 175.38L235.492 24.1133L87.6855 133.317Z" fill="url(#paint1_linear_818:6282)"/>
<path d="M158.286 82.5576V225.797H280.53V82.5576H158.286Z" fill="url(#paint2_linear_818:6282)"/>
</g>
<defs>
<linearGradient id="paint0_linear_818:6282" x1="258.218" y1="71.4535" x2="177.064" y2="237.008" gradientUnits="userSpaceOnUse">
<stop offset="0.3" stop-color="#3E863D"/>
<stop offset="0.5" stop-color="#55934F"/>
<stop offset="0.8" stop-color="#5AAD45"/>
</linearGradient>
<linearGradient id="paint1_linear_818:6282" x1="144.239" y1="209.819" x2="292.057" y2="100.599" gradientUnits="userSpaceOnUse">
<stop offset="0.57" stop-color="#3E863D"/>
<stop offset="0.72" stop-color="#619857"/>
<stop offset="1" stop-color="#76AC64"/>
</linearGradient>
<linearGradient id="paint2_linear_818:6282" x1="158.327" y1="154.181" x2="280.553" y2="154.181" gradientUnits="userSpaceOnUse">
<stop offset="0.16" stop-color="#6BBF47"/>
<stop offset="0.38" stop-color="#79B461"/>
<stop offset="0.47" stop-color="#75AC64"/>
<stop offset="0.7" stop-color="#659E5A"/>
<stop offset="0.9" stop-color="#3E863D"/>
</linearGradient>
<clipPath id="clip0_818:6282">
<rect width="589.827" height="361.238" fill="white"/>
</clipPath>
</defs>
</svg>
